<!--?xml version="1.0" standalone="no"?-->              <svg id="sw-js-blob-svg" viewBox="0 0 100 100" xmlns="http://www.w3.org/2000/svg">                    <defs>                         <linearGradient id="sw-gradient" x1="0" x2="1" y1="1" y2="0">                            <stop id="stop1" stop-color="rgba(41, 120, 181, 1)" offset="0%"></stop>                            <stop id="stop2" stop-color="rgba(251, 168, 31, 1)" offset="100%"></stop>                        </linearGradient>                    </defs>                <path fill="rgba(41, 120, 181, 1)" d="M18.2,-23.9C24.8,-20.4,31.9,-16.5,35.3,-10.5C38.7,-4.4,38.3,4,35.6,11.4C33,18.9,28.2,25.5,21.9,28.4C15.6,31.3,7.8,30.5,0.7,29.6C-6.4,28.6,-12.8,27.6,-18.6,24.5C-24.5,21.4,-29.6,16.4,-31.5,10.3C-33.3,4.3,-31.8,-2.8,-28.5,-8.2C-25.2,-13.5,-20.2,-17.2,-15.2,-21.2C-10.1,-25.2,-5.1,-29.5,0.4,-30C5.9,-30.6,11.7,-27.4,18.2,-23.9Z" width="100%" height="100%" transform="translate(50 50)" stroke-width="0" style="transition: all 0.3s ease 0s;"></path>              </svg>