<!--?xml version="1.0" standalone="no"?-->              <svg id="sw-js-blob-svg" viewBox="0 0 100 100" xmlns="http://www.w3.org/2000/svg">                    <defs>                         <linearGradient id="sw-gradient" x1="0" x2="1" y1="1" y2="0">                            <stop id="stop1" stop-color="rgba(41, 120, 181, 1)" offset="0%"></stop>                            <stop id="stop2" stop-color="rgba(251, 168, 31, 1)" offset="100%"></stop>                        </linearGradient>                    </defs>                <path fill="rgba(41, 120, 181, 1)" d="M23.1,-26.4C28.7,-22.8,31,-14.4,30.5,-6.9C30,0.5,26.6,6.9,22.6,12.2C18.6,17.6,14,21.7,8.5,24.2C2.9,26.6,-3.6,27.2,-9,25.1C-14.3,22.9,-18.5,18,-22.4,12.4C-26.3,6.8,-29.8,0.5,-30.2,-6.7C-30.5,-13.8,-27.7,-21.7,-22.1,-25.3C-16.6,-28.9,-8.3,-28.1,0.2,-28.4C8.8,-28.6,17.5,-30,23.1,-26.4Z" width="100%" height="100%" transform="translate(50 50)" stroke-width="0" style="transition: all 0.3s ease 0s;"></path>              </svg>