<!--?xml version="1.0" standalone="no"?-->              <svg id="sw-js-blob-svg" viewBox="0 0 100 100" xmlns="http://www.w3.org/2000/svg">                    <defs>                         <linearGradient id="sw-gradient" x1="0" x2="1" y1="1" y2="0">                            <stop id="stop1" stop-color="rgba(41, 120, 181, 1)" offset="0%"></stop>                            <stop id="stop2" stop-color="rgba(251, 168, 31, 1)" offset="100%"></stop>                        </linearGradient>                    </defs>                <path fill="rgba(41, 120, 181, 1)" d="M21.4,-26.8C27.7,-20.3,32.6,-13.5,36,-4.8C39.3,3.8,40.9,14.2,36.3,19.9C31.8,25.6,20.9,26.5,11.8,27.9C2.6,29.4,-4.7,31.3,-12.5,30.2C-20.3,29.2,-28.5,25.2,-32.8,18.6C-37,11.9,-37.3,2.6,-35.2,-5.6C-33,-13.9,-28.4,-21.2,-22.2,-27.7C-15.9,-34.3,-8,-40.1,-0.2,-39.9C7.6,-39.6,15.2,-33.4,21.4,-26.8Z" width="100%" height="100%" transform="translate(50 50)" stroke-width="0" style="transition: all 0.3s ease 0s;"></path>              </svg>